<svg xmlns="http://www.w3.org/2000/svg" version="1.1" xmlns:xlink="http://www.w3.org/1999/xlink" viewBox="0 0 200 200" width="200" height="200"><metadata><rdf:RDF xmlns:rdf="http://www.w3.org/1999/02/22-rdf-syntax-ns#" xmlns:dc="http://purl.org/dc/elements/1.1/"><rdf:Description><dc:creator>RealFaviconGenerator</dc:creator><dc:source>https://realfavicongenerator.net</dc:source></rdf:Description></rdf:RDF></metadata><rect width="200" height="200" fill="url('#gradient')"></rect><defs><linearGradient id="gradient" gradientTransform="rotate(45 0.5 0.5)"><stop offset="0%" stop-color="#2c5664"></stop><stop offset="100%" stop-color="#1e315e"></stop></linearGradient></defs><g><g fill="#f0611c" transform="matrix(5.083441006460387,0,0,5.083441006460387,21.55793225129662,136.14264110113155)" stroke="#fba70b" stroke-width="0.35"><path d="M1.07-14.22L5.58-14.22L8.75-4.33L11.91-14.22L16.43-14.22L16.43 0L12.99 0L12.99-3.32L13.32-10.12L9.88 0L7.62 0L4.17-10.13L4.50-3.32L4.50 0L1.07 0L1.07-14.22ZM24.22-4.82L22.03-4.82L22.03 0L18.60 0L18.60-14.22L24.28-14.22Q25.91-14.22 27.16-13.62Q28.42-13.02 29.11-11.91Q29.79-10.80 29.79-9.39L29.79-9.39Q29.79-7.31 28.31-6.07Q26.82-4.82 24.22-4.82L24.22-4.82ZM22.03-11.57L22.03-7.47L24.28-7.47Q25.27-7.47 25.80-7.97Q26.32-8.47 26.32-9.38L26.32-9.38Q26.32-10.37 25.78-10.97Q25.24-11.56 24.32-11.57L24.32-11.57L22.03-11.57Z"></path></g></g></svg>